<svg width="64" height="64" viewBox="0 0 64 64" fill="none" xmlns="http://www.w3.org/2000/svg">
<path d="M56.267 29.467L34.5337 7.73366C33.867 7.06699 32.9337 6.66699 32.0003 6.66699C31.067 6.66699 30.1337 7.06699 29.467 7.73366L24.8003 12.4003L30.267 17.867C30.8003 17.6003 31.3337 17.467 32.0003 17.467C34.267 17.467 36.0003 19.2003 36.0003 21.467C36.0003 22.1337 35.867 22.667 35.6003 23.2003L40.9337 28.5337C41.467 28.267 42.0003 28.1337 42.667 28.1337C44.9337 28.1337 46.667 29.867 46.667 32.1337C46.667 34.4003 44.9337 36.1337 42.667 36.1337C40.4003 36.1337 38.667 34.4003 38.667 32.1337C38.667 31.467 38.8003 30.9337 39.067 30.4003L33.7337 25.067C33.6003 25.067 33.467 25.2003 33.3337 25.2003V39.067C34.9337 39.6003 36.0003 41.067 36.0003 42.8003C36.0003 45.067 34.267 46.8003 32.0003 46.8003C29.7337 46.8003 28.0003 45.067 28.0003 42.8003C28.0003 41.067 29.067 39.6003 30.667 39.067V25.067C29.067 24.5337 28.0003 23.067 28.0003 21.3337C28.0003 20.667 28.1337 20.1337 28.4003 19.6003L22.9337 14.1337L7.73366 29.467C7.06699 30.1337 6.66699 31.067 6.66699 32.0003C6.66699 32.9337 7.06699 33.867 7.73366 34.5337L29.467 56.267C30.1337 56.9337 31.067 57.3337 32.0003 57.3337C32.9337 57.3337 33.867 56.9337 34.5337 56.267L56.267 34.5337C56.9337 33.867 57.3337 32.9337 57.3337 32.0003C57.3337 31.067 56.9337 30.1337 56.267 29.467Z" fill="#F4511E"/>
</svg>
