<svg width="65" height="64" viewBox="0 0 65 64" fill="none" xmlns="http://www.w3.org/2000/svg">
<g clip-path="url(#clip0_420_3247)">
<path d="M1.48928 40.4786C0.734741 37.7307 0.350586 34.8766 0.350586 32.0019C0.350586 18.8791 8.59227 6.88016 20.8605 2.14844L22.469 6.3114C11.9088 10.3853 4.81612 20.7087 4.81612 32.0019C4.81612 34.4791 5.14536 36.9323 5.79359 39.2964L1.48928 40.4786Z" fill="#58D09E"/>
<path d="M20.6463 2.25038C23.3003 1.21274 26.0986 0.532349 28.9575 0.231864C42.0085 -1.13984 54.8032 5.80246 60.7913 17.5088L56.8193 19.5437C51.6639 9.46722 40.6557 3.49247 29.4243 4.67293C26.9607 4.93187 24.5553 5.51574 22.2719 6.40753L20.6463 2.25038Z" fill="#58D09E"/>
<path d="M46.9978 55.2681C55.7122 49.7133 60.566 39.8553 59.6642 29.5471C59.3446 25.8946 58.3309 22.4063 56.6562 19.1857L60.6132 17.1215C62.5607 20.8656 63.7404 24.9145 64.1117 29.158C65.1594 41.1336 59.5229 52.5817 49.3979 59.0347L46.9978 55.2681Z" fill="#F9FAFB"/>
<path d="M22.8534 25.3993C25.4428 25.3993 27.5521 26.7801 28.636 29.1888L28.7217 29.3773L33.0705 27.9005L32.978 27.6779C31.294 23.5765 27.4149 21.0273 22.8534 21.0273C19.6465 21.0273 17.0399 22.0553 14.8861 24.1659C12.7459 26.2628 11.6621 28.9011 11.6621 32.0087C11.6621 35.0889 12.7459 37.7135 14.8861 39.8104C17.0399 41.9211 19.6465 42.9489 22.8534 42.9489C27.4149 42.9489 31.294 40.3997 32.978 36.3019L33.0705 36.0792L28.7148 34.5989L28.6325 34.7943C27.6618 37.1619 25.5012 38.5769 22.8534 38.5769C21.0493 38.5769 19.5265 37.9465 18.3192 36.7061C17.0982 35.4487 16.4809 33.8692 16.4809 32.0121C16.4809 30.1413 17.0845 28.5927 18.3192 27.2769C19.523 26.0299 21.0493 25.3993 22.8534 25.3993Z" fill="#F9FAFB"/>
<path d="M50.0923 21.4316L43.8949 37.1138L37.6562 21.4316H32.5527L41.3019 42.8358L35.077 57.932L39.5391 58.8195L54.9146 21.4316H50.0923Z" fill="#F9FAFB"/>
<path d="M35.8751 55.9859L34.7879 58.6174C34.5718 59.1382 34.0779 59.491 33.5223 59.515C33.1554 59.5287 32.785 59.539 32.4111 59.539C19.6147 59.5322 8.29316 50.5107 5.48763 38.0801L1.13184 39.0634C2.70609 46.0359 6.65717 52.3643 12.2579 56.8871C17.9239 61.4611 25.0611 63.9863 32.3631 64.0001C32.3734 64.0001 32.4282 64.0001 32.4282 64.0001C32.857 64.0001 33.2822 63.9898 33.7075 63.9727C35.9986 63.8767 38.0462 62.4411 38.9207 60.3134L40.3406 56.8734L35.8751 55.9859Z" fill="#F9FAFB"/>
</g>
<defs>
<clipPath id="clip0_420_3247">
<rect width="64" height="64" fill="white" transform="translate(0.350586)"/>
</clipPath>
</defs>
</svg>
