<svg width="71" height="64" viewBox="0 0 71 64" fill="none" xmlns="http://www.w3.org/2000/svg">
<g clip-path="url(#clip0_420_3184)">
<path d="M35.6572 38.7725C39.3295 38.7725 42.3065 35.7404 42.3065 32C42.3065 28.2597 39.3295 25.2275 35.6572 25.2275C31.9848 25.2275 29.0078 28.2597 29.0078 32C29.0078 35.7404 31.9848 38.7725 35.6572 38.7725Z" fill="#087EA4"/>
<path d="M35.6569 47.2389C54.0186 47.2389 68.9037 40.4166 68.9037 32.0008C68.9037 23.585 54.0186 16.7627 35.6569 16.7627C17.2952 16.7627 2.41016 23.585 2.41016 32.0008C2.41016 40.4166 17.2952 47.2389 35.6569 47.2389Z" stroke="#087EA4" stroke-width="3"/>
<path d="M22.7003 39.6195C31.8812 55.8156 45.1246 65.5341 52.2803 61.3262C59.4361 57.1183 57.7944 40.5775 48.6136 24.3814C39.4328 8.18524 26.1893 -1.53317 19.0336 2.67471C11.8778 6.8826 13.5195 23.4233 22.7003 39.6195Z" stroke="#087EA4" stroke-width="3"/>
<path d="M22.7002 24.3816C13.5193 40.5777 11.8777 57.1185 19.0334 61.3264C26.1892 65.5342 39.4326 55.8158 48.6134 39.6197C57.7943 23.4235 59.4359 6.88278 52.2802 2.6749C45.1244 -1.53299 31.881 8.18542 22.7002 24.3816Z" stroke="#087EA4" stroke-width="3"/>
</g>
<defs>
<clipPath id="clip0_420_3184">
<rect width="69.8182" height="64" fill="white" transform="translate(0.748047)"/>
</clipPath>
</defs>
</svg>
