<svg width="106" height="64" viewBox="0 0 106 64" fill="none" xmlns="http://www.w3.org/2000/svg">
<g clip-path="url(#clip0_420_3231)">
<mask id="mask0_420_3231" style="mask-type:luminance" maskUnits="userSpaceOnUse" x="0" y="0" width="106" height="63">
<path d="M0.973633 0H105.701V62.8364H0.973633V0Z" fill="white"/>
</mask>
<g mask="url(#mask0_420_3231)">
<path fill-rule="evenodd" clip-rule="evenodd" d="M53.3373 0C39.3736 0 30.6464 6.98182 27.1555 20.9455C32.3918 13.9636 38.5009 11.3455 45.4827 13.0909C49.4662 14.0858 52.3133 16.9775 55.4648 20.1755C60.5984 25.3867 66.5407 31.4182 79.5191 31.4182C93.4827 31.4182 102.21 24.4364 105.701 10.4727C100.465 17.4545 94.3554 20.0727 87.3736 18.3273C83.3901 17.3324 80.5431 14.4407 77.3916 11.2427C72.258 6.03151 66.3157 0 53.3373 0ZM27.1555 31.4182C13.1918 31.4182 4.46454 38.4 0.973633 52.3636C6.21 45.3818 12.3191 42.7636 19.3009 44.5091C23.2844 45.5059 26.1315 48.3956 29.283 51.5937C34.4165 56.8048 40.3588 62.8364 53.3373 62.8364C67.3009 62.8364 76.0282 55.8545 79.5191 41.8909C74.2827 48.8727 68.1736 51.4909 61.1918 49.7455C57.2083 48.7505 54.3613 45.8589 51.2098 42.6608C46.0762 37.4497 40.1339 31.4182 27.1555 31.4182Z" fill="#38BDF8"/>
</g>
</g>
<defs>
<clipPath id="clip0_420_3231">
<rect width="104.727" height="64" fill="white" transform="translate(0.973633)"/>
</clipPath>
</defs>
</svg>
