<svg width="67" height="64" viewBox="0 0 67 64" fill="none" xmlns="http://www.w3.org/2000/svg">
<path fill-rule="evenodd" clip-rule="evenodd" d="M38.3493 1.06152C37.8975 1.06152 37.478 1.15861 37.0907 1.28806C37.9136 1.83821 38.3654 2.56636 38.5913 3.39158C38.6075 3.50485 38.6397 3.58576 38.6559 3.69902C38.672 3.79611 38.6881 3.89319 38.6881 3.99028C38.7527 5.4142 38.317 5.59219 38.0104 6.4336C37.5425 7.51773 37.6716 8.68276 38.2363 9.62126C38.2847 9.73452 38.3493 9.86397 38.43 9.97724C37.8168 5.88345 41.2213 5.26858 41.8506 3.99028C41.899 2.87379 40.9793 2.12947 40.2532 1.61168C39.5594 1.19097 38.9301 1.06152 38.3493 1.06152ZM43.4802 1.98384C43.4157 2.356 43.4641 2.25891 43.448 2.45309C43.4318 2.58253 43.4318 2.74435 43.4157 2.87379C43.3835 3.00324 43.3512 3.13269 43.3028 3.26214C43.2705 3.39158 43.2221 3.52103 43.1737 3.65048C43.1091 3.77993 43.0608 3.89319 42.9962 4.02264C42.9478 4.08739 42.9155 4.15209 42.8671 4.21681C42.8349 4.26536 42.8026 4.3139 42.7703 4.36244C42.6897 4.47571 42.609 4.58898 42.5283 4.68606C42.4315 4.78315 42.3508 4.89641 42.2379 4.97732V4.99352C42.1411 5.07443 42.0442 5.17151 41.9313 5.25242C41.5925 5.51131 41.2052 5.70548 40.8503 5.9482C40.7373 6.0291 40.6244 6.09383 40.5276 6.19092C40.4146 6.27182 40.3178 6.35272 40.221 6.44981C40.108 6.54689 40.0274 6.64398 39.9306 6.75725C39.8499 6.85434 39.7531 6.9676 39.6885 7.08087C39.6079 7.19413 39.5272 7.3074 39.4626 7.42067C39.3981 7.55011 39.3497 7.66338 39.2852 7.79283C39.2368 7.92227 39.1883 8.03554 39.1561 8.16499C39.1077 8.31062 39.0754 8.44007 39.0431 8.56952C39.027 8.63427 39.027 8.71514 39.0109 8.77987C38.9947 8.84462 38.9947 8.90931 38.9786 8.97404C38.9786 9.10349 38.9625 9.24912 38.9625 9.37856C38.9625 9.47565 38.9625 9.57273 38.9786 9.66982C38.9786 9.79927 38.9948 9.92871 39.027 10.0743C39.0432 10.2038 39.0754 10.3332 39.1077 10.4627C39.1561 10.5921 39.1884 10.7216 39.2368 10.851C39.2691 10.9319 39.3175 11.0128 39.3498 11.0776L35.6387 9.63746C35.0094 9.45947 34.3963 9.29766 33.767 9.15203C33.4282 9.07113 33.0894 8.99022 32.7505 8.90932C31.7824 8.71514 30.7982 8.56952 29.8139 8.47243C29.7817 8.47243 29.7655 8.45623 29.7333 8.45623C28.7652 8.35915 27.8132 8.3106 26.8451 8.3106C26.1352 8.3106 25.4252 8.34294 24.7314 8.39151C23.7472 8.45626 22.7629 8.58568 21.7787 8.74748C21.5367 8.77982 21.2946 8.8284 21.0526 8.87694C20.5524 8.97402 20.0684 9.08729 19.6005 9.20056C19.3584 9.26531 19.1164 9.33 18.8744 9.39472C18.6324 9.49181 18.4065 9.60508 18.1806 9.70217C18.0031 9.78307 17.8256 9.86397 17.6481 9.94488C17.6159 9.96108 17.5836 9.96108 17.5675 9.97722C17.4061 10.0581 17.2609 10.1228 17.1157 10.2038C17.0673 10.22 17.035 10.2361 17.0027 10.2523C16.8252 10.3332 16.6478 10.4303 16.5025 10.5112C16.3896 10.5597 16.2767 10.6245 16.1798 10.673C16.1314 10.7053 16.0669 10.7378 16.0346 10.7539C15.8894 10.8348 15.7442 10.9157 15.6151 10.9966C15.4699 11.0775 15.3408 11.1584 15.2279 11.2393C15.1149 11.3202 15.002 11.385 14.9052 11.4659C14.889 11.4821 14.8729 11.4821 14.8568 11.4982C14.76 11.563 14.647 11.6438 14.5502 11.7247C14.5502 11.7247 14.534 11.7409 14.518 11.7571C14.4373 11.8218 14.3566 11.8865 14.2759 11.9512C14.2437 11.9674 14.2114 11.9998 14.1791 12.016C14.0984 12.0807 14.0178 12.1616 13.9371 12.2263C13.9209 12.2587 13.8887 12.2749 13.8725 12.2911C13.7757 12.3882 13.6789 12.4691 13.5821 12.5662C13.5659 12.5662 13.5659 12.5824 13.5499 12.5985C13.453 12.6794 13.3562 12.7765 13.2594 12.8736C13.2433 12.8898 13.2433 12.9059 13.2272 12.9059C13.1465 12.9868 13.0658 13.0677 12.9851 13.1648C12.9529 13.1972 12.9045 13.2296 12.8722 13.2619C12.7915 13.359 12.6947 13.4561 12.5979 13.5532C12.5818 13.5855 12.5495 13.6017 12.5333 13.6341C12.4043 13.7635 12.2913 13.893 12.1622 14.0224C12.1461 14.0386 12.13 14.0547 12.1138 14.071C11.8557 14.346 11.5814 14.6211 11.291 14.8638C11.0005 15.1227 10.694 15.3654 10.3874 15.5758C10.0647 15.8023 9.75812 15.9965 9.41928 16.1907C9.09658 16.3686 8.75775 16.5305 8.40278 16.6761C8.06394 16.8217 7.70897 16.9512 7.354 17.0644C6.67633 17.2101 5.98252 17.4851 5.38552 17.5337C5.25644 17.5337 5.11123 17.566 4.98215 17.5822C4.83693 17.6146 4.70786 17.647 4.57878 17.6793C4.4497 17.7278 4.32061 17.7764 4.19153 17.8249C4.06245 17.8735 3.93337 17.9382 3.8043 18.0029C3.69135 18.0838 3.56227 18.1486 3.44932 18.2295C3.33638 18.3104 3.22343 18.4074 3.12662 18.5045C3.01368 18.5854 2.90073 18.6987 2.80392 18.7958C2.70711 18.9091 2.6103 19.0061 2.52962 19.1194C2.44895 19.2489 2.35214 19.3621 2.2876 19.4916C2.20692 19.6048 2.12625 19.7343 2.06171 19.8637C1.99714 20.0094 1.93263 20.1388 1.88422 20.2844C1.83582 20.4139 1.78741 20.5595 1.73901 20.7051C1.70676 20.8346 1.67444 20.964 1.65833 21.0935C1.65833 21.1097 1.64217 21.1258 1.64217 21.142C1.60993 21.2877 1.60993 21.4818 1.59377 21.5789C1.57761 21.6922 1.56152 21.7893 1.56152 21.9025C1.56152 21.9673 1.56152 22.0482 1.57768 22.1129C1.59384 22.2262 1.60993 22.3232 1.64225 22.4203C1.67449 22.5174 1.70682 22.6145 1.75519 22.7116V22.7278C1.8036 22.8249 1.86814 22.922 1.93267 23.0191C1.99724 23.1161 2.06176 23.2132 2.14243 23.3103C2.22311 23.3912 2.31992 23.4883 2.41673 23.5692C2.51354 23.6663 2.61035 23.7472 2.72329 23.8281C3.11054 24.1679 3.20735 24.2812 3.70753 24.5401C3.7882 24.5886 3.86889 24.621 3.9657 24.6695C3.98186 24.6695 3.99794 24.6857 4.0141 24.6857C4.0141 24.7181 4.0141 24.7343 4.03026 24.7666C4.04642 24.8961 4.07867 25.0255 4.11094 25.155C4.14318 25.3006 4.19162 25.4301 4.24002 25.5433C4.28843 25.6404 4.3207 25.7375 4.3691 25.8346C4.38526 25.8669 4.40135 25.8993 4.41751 25.9155C4.48207 26.0449 4.54659 26.1582 4.61112 26.2715C4.6918 26.3847 4.77248 26.498 4.85315 26.6113C4.93382 26.7083 5.03063 26.8216 5.12744 26.9187C5.22426 27.0158 5.32107 27.0967 5.43402 27.1938C5.43402 27.1938 5.45018 27.21 5.46626 27.21C5.56307 27.2909 5.65988 27.3718 5.75669 27.4365C5.86963 27.5174 5.98258 27.5822 6.11166 27.6469C6.22461 27.7116 6.35369 27.7763 6.48277 27.8249C6.57958 27.8734 6.69252 27.9058 6.80547 27.9381C6.82163 27.9544 6.83771 27.9544 6.87003 27.9705C6.9346 27.9867 7.01524 28.0028 7.07978 28.019C7.03138 28.8928 7.01522 29.718 7.14435 30.0093C7.28956 30.3329 7.9995 29.3459 8.70945 28.2132C8.61264 29.3297 8.54809 30.6403 8.70945 31.0287C8.88693 31.4332 9.85503 30.1711 10.6941 28.7795C22.1338 26.1259 32.5732 34.0545 33.6703 45.2517C33.4606 43.5042 31.3146 42.5333 30.3304 42.7761C29.8463 43.9735 29.0235 45.5106 27.7004 46.4653C27.8133 45.3974 27.7649 44.2971 27.539 43.2291C27.1841 44.7178 26.4903 46.1093 25.5383 47.3067C24.0055 47.42 22.4726 46.6757 21.6659 45.5592C21.6013 45.5106 21.5852 45.4136 21.5368 45.3488C21.4884 45.2356 21.44 45.1223 21.4077 45.009C21.3593 44.8958 21.327 44.7825 21.3109 44.6692C21.2947 44.556 21.2947 44.4427 21.2947 44.3133C21.2947 44.2323 21.2947 44.1514 21.2947 44.0705C21.3109 43.9573 21.3431 43.844 21.3754 43.7307C21.4077 43.6175 21.44 43.5042 21.4884 43.3909C21.5529 43.2777 21.6013 43.1644 21.682 43.0511C21.9563 42.2744 21.9563 41.6434 21.4561 41.2712C21.3593 41.2065 21.2625 41.158 21.1495 41.1094C21.085 41.0932 21.0043 41.0609 20.9398 41.0447C20.8914 41.0285 20.8591 41.0123 20.8107 40.9961C20.6977 40.9638 20.5848 40.9314 20.4719 40.9152C20.3589 40.8829 20.246 40.8667 20.133 40.8667C20.0201 40.8505 19.891 40.8343 19.778 40.8343C19.6974 40.8343 19.6167 40.8505 19.536 40.8505C19.4069 40.8505 19.294 40.8668 19.1811 40.8991C19.0681 40.9153 18.9552 40.9314 18.8422 40.9638C18.7293 40.9962 18.6163 41.0286 18.5034 41.0771C18.3904 41.1256 18.2936 41.1742 18.1807 41.2227C18.0839 41.2713 17.9871 41.336 17.8741 41.3845C14.1146 43.844 16.3574 49.6045 18.9229 51.2711C17.9548 51.4491 16.9706 51.6595 16.6963 51.8698C16.6801 51.886 16.664 51.9021 16.664 51.9021C17.3578 52.3228 18.0839 52.6788 18.8422 52.9863C19.8749 53.3261 20.9721 53.6335 21.4561 53.763V53.7792C22.7953 54.0542 24.1507 54.1513 25.5221 54.0704C32.67 53.5688 38.527 48.1158 39.5919 40.9315C39.6241 41.0771 39.6565 41.2065 39.6887 41.3522C39.7371 41.6434 39.8017 41.9509 39.8339 42.2583V42.2745C39.8662 42.4202 39.8823 42.5658 39.8985 42.6952V42.76C39.9147 42.9056 39.9307 43.0512 39.9307 43.1807C39.9469 43.3587 39.963 43.5367 39.963 43.7147V43.9736C39.963 44.0545 39.9791 44.1515 39.9791 44.2325C39.9791 44.3295 39.963 44.4266 39.963 44.5237V44.7502C39.963 44.8635 39.9468 44.9606 39.9468 45.0739C39.9468 45.1386 39.9468 45.2033 39.9306 45.2842C39.9306 45.3975 39.9145 45.5107 39.9145 45.6402C39.8983 45.6887 39.8983 45.7373 39.8983 45.7858C39.8822 45.9153 39.8661 46.0285 39.8499 46.158C39.8499 46.2065 39.8499 46.2551 39.8337 46.3036C39.8176 46.4654 39.7853 46.6111 39.7692 46.7729V46.7891V46.8053C39.7369 46.9509 39.7046 47.1127 39.6724 47.2584V47.3069C39.6401 47.4525 39.6078 47.5982 39.5756 47.7438C39.5756 47.76 39.5594 47.7923 39.5594 47.8085C39.5272 47.9542 39.4948 48.0998 39.4465 48.2454V48.294C39.3981 48.4558 39.3497 48.6014 39.3174 48.747C39.3012 48.7632 39.3012 48.7794 39.3012 48.7794C39.2528 48.9412 39.2044 49.103 39.156 49.2648C39.0915 49.4266 39.0431 49.5722 38.9785 49.734C38.914 49.8959 38.8656 50.0577 38.801 50.2033C38.7365 50.3651 38.672 50.5107 38.6074 50.6725H38.5912C38.5267 50.8182 38.4622 50.98 38.3815 51.1256C38.3653 51.1742 38.3492 51.2065 38.3331 51.2389C38.3169 51.2551 38.3169 51.2712 38.3008 51.2874C37.2521 53.4071 35.7031 55.2679 33.7669 56.7242C33.6378 56.8051 33.5087 56.9022 33.3797 56.9993C33.3474 57.0316 33.299 57.0478 33.2667 57.0802C33.1538 57.1611 33.0408 57.242 32.9117 57.3229L32.9601 57.42H32.9763C33.2022 57.3877 33.4281 57.3553 33.654 57.3229H33.6701C34.0896 57.2582 34.5092 57.1773 34.9287 57.0964C35.0416 57.0802 35.1707 57.0478 35.2836 57.0155C35.3643 56.9992 35.4288 56.9831 35.5095 56.9669C35.6225 56.9507 35.7354 56.9184 35.8484 56.9022C35.9452 56.8699 36.042 56.8536 36.1388 56.8213C37.7523 56.4329 39.3174 55.899 40.8179 55.2679C38.2525 58.7792 34.8157 61.6108 30.7981 63.4717C32.6536 63.3422 34.5091 63.0348 36.3001 62.517C42.8026 60.5914 48.2723 56.2064 51.5477 50.3003C50.8862 54.0382 49.4018 57.598 47.2074 60.7047C48.7725 59.6691 50.2085 58.4717 51.5155 57.1125C55.1297 53.3262 57.5016 48.5205 58.3083 43.3587C58.8569 45.9153 59.0183 48.5528 58.7762 51.1579C70.4257 34.8637 59.7443 17.9708 55.2749 13.521C55.2588 13.4887 55.2427 13.4725 55.2427 13.4401C55.2265 13.4563 55.2265 13.4563 55.2265 13.4724C55.2265 13.4562 55.2265 13.4562 55.2104 13.4401C55.2104 13.6343 55.1942 13.8284 55.1781 14.0226C55.1297 14.3948 55.0813 14.7508 55.0168 15.1067C54.9361 15.4627 54.8393 15.8187 54.7425 16.1747C54.6295 16.5145 54.5004 16.8705 54.3552 17.2103C54.21 17.5339 54.0487 17.8737 53.8712 18.1973C53.6937 18.5048 53.5001 18.8284 53.2903 19.1196C53.0806 19.4271 52.8547 19.7183 52.6288 19.9934C52.3867 20.2847 52.1286 20.5436 51.8704 20.8024C51.7091 20.9481 51.5639 21.0775 51.4025 21.207C51.2734 21.3202 51.1605 21.4173 51.0314 21.5306C50.741 21.7571 50.4505 21.9675 50.1278 22.1616C49.8213 22.3558 49.4986 22.55 49.1759 22.7118C48.837 22.8736 48.4982 23.0192 48.1594 23.1649C47.8205 23.2943 47.4656 23.4076 47.1106 23.5047C46.7556 23.6017 46.3845 23.6827 46.0295 23.7474C45.6584 23.8121 45.2873 23.8445 44.9324 23.8768C44.6742 23.893 44.416 23.9092 44.1579 23.9092C43.7868 23.9092 43.4157 23.8768 43.0607 23.8444C42.6896 23.8121 42.3185 23.7635 41.9635 23.6826C41.5924 23.6179 41.2374 23.5208 40.8825 23.4075H40.8663C41.2213 23.3752 41.5763 23.3428 41.9312 23.2781C42.3023 23.2133 42.6573 23.1325 43.0123 23.0354C43.3672 22.9383 43.7222 22.825 44.0611 22.6956C44.416 22.5661 44.7549 22.4043 45.0776 22.2425C45.4164 22.0807 45.723 21.9027 46.0457 21.7085C46.3522 21.4982 46.6588 21.2878 46.9492 21.0613C47.2397 20.8348 47.5139 20.592 47.7721 20.3331C48.0464 20.0904 48.2884 19.8154 48.5305 19.5403C48.7725 19.249 48.9984 18.9578 49.2081 18.6665C49.2404 18.618 49.2727 18.5532 49.3049 18.5047C49.4663 18.2458 49.6276 17.9869 49.7729 17.728C49.9503 17.4044 50.1117 17.0808 50.2569 16.741C50.4021 16.4012 50.5312 16.0614 50.6441 15.7054C50.7571 15.3656 50.8378 15.0096 50.9184 14.6536C50.983 14.2815 51.0475 13.9255 51.0798 13.5695C51.112 13.1973 51.1444 12.8252 51.1444 12.4692C51.1444 12.2103 51.1282 11.9514 51.1121 11.6925C51.0799 11.3203 51.0314 10.9644 50.983 10.6084C50.9185 10.2362 50.8378 9.88024 50.741 9.52426C50.6281 9.18446 50.5151 8.82848 50.386 8.48868C50.257 8.14888 50.0956 7.80908 49.9342 7.48545C49.7568 7.16184 49.5793 6.83822 49.3857 6.53078C49.1759 6.22335 48.9661 5.93209 48.7403 5.64083C48.4982 5.36575 48.2562 5.09067 47.998 4.8156C47.869 4.68615 47.7238 4.54052 47.5785 4.41108C46.8525 3.84474 46.0941 3.31077 45.3358 2.82534C45.2228 2.76059 45.126 2.71207 45.0131 2.66353C44.4806 2.32373 43.9804 2.14564 43.4802 1.98384Z" fill="#E0234E"/>
</svg>
