<svg width="57" height="64" viewBox="0 0 57 64" fill="none" xmlns="http://www.w3.org/2000/svg">
<g clip-path="url(#clip0_420_3202)">
<path d="M28.9127 64C28.0548 64 27.254 63.7668 26.5104 63.3586L18.9031 58.7517C17.7591 58.1102 18.3311 57.877 18.6743 57.7603C20.2187 57.2355 20.5046 57.1189 22.1062 56.1859C22.2777 56.0692 22.5065 56.1275 22.6781 56.2442L28.5123 59.8014C28.7411 59.918 29.0271 59.918 29.1987 59.8014L52.0207 46.3307C52.2494 46.214 52.3638 45.9808 52.3638 45.6892V18.806C52.3638 18.5145 52.2494 18.2812 52.0207 18.1646L29.1987 4.75223C28.9699 4.63561 28.6839 4.63561 28.5123 4.75223L5.69036 18.1646C5.46158 18.2812 5.34718 18.5728 5.34718 18.806V45.6892C5.34718 45.9224 5.46158 46.214 5.69036 46.3307L11.9249 50.0045C15.2996 51.7539 17.4159 49.7129 17.4159 47.6719V21.1386C17.4159 20.7888 17.7019 20.4389 18.1023 20.4389H21.0194C21.3626 20.4389 21.7057 20.7305 21.7057 21.1386V47.6719C21.7057 52.2788 19.2462 54.9613 14.9564 54.9613C13.6409 54.9613 12.6113 54.9613 9.69419 53.5034L3.68844 50.0045C2.2013 49.1297 1.28613 47.4969 1.28613 45.7475V18.8644C1.28613 17.115 2.2013 15.4822 3.68844 14.6074L26.5104 1.13672C27.9404 0.320313 29.8851 0.320313 31.315 1.13672L54.1369 14.6074C55.6241 15.4822 56.5393 17.115 56.5393 18.8644V45.7475C56.5393 47.4969 55.6241 49.1297 54.1369 50.0045L31.315 63.4752C30.6287 63.7668 29.7707 64 28.9127 64Z" fill="#5FA04E"/>
<path d="M36.0053 45.5138C25.9956 45.5138 23.9365 40.8486 23.9365 36.8832C23.9365 36.5334 24.2225 36.1835 24.6228 36.1835H27.5972C27.9403 36.1835 28.2264 36.4167 28.2264 36.7666C28.6839 39.8573 29.9995 41.3735 36.0625 41.3735C40.867 41.3735 42.9262 40.2655 42.9262 37.6413C42.9262 36.1252 42.3542 35.0171 34.8613 34.259C28.6267 33.6176 24.7373 32.2181 24.7373 27.1447C24.7373 22.4211 28.6267 19.6221 35.1473 19.6221C42.4686 19.6221 46.072 22.1879 46.5297 27.7861C46.5297 27.9611 46.4725 28.136 46.3581 28.311C46.2437 28.4276 46.072 28.5442 45.9005 28.5442H42.869C42.583 28.5442 42.297 28.311 42.2398 28.0194C41.5534 24.8121 39.7803 23.7624 35.0901 23.7624C29.8278 23.7624 29.1987 25.6285 29.1987 27.028C29.1987 28.7191 29.9423 29.244 37.0348 30.177C44.0701 31.1101 47.3876 32.4513 47.3876 37.4664C47.3876 42.5981 43.2122 45.5138 36.0053 45.5138Z" fill="#5FA04E"/>
</g>
<defs>
<clipPath id="clip0_420_3202">
<rect width="56.32" height="64" fill="white" transform="translate(0.65332)"/>
</clipPath>
</defs>
</svg>
