<svg width="65" height="64" viewBox="0 0 65 64" fill="none" xmlns="http://www.w3.org/2000/svg">
<g clip-path="url(#clip0_420_3207)">
<path d="M64.1875 49.5903C61.8595 50.1823 60.4195 49.6163 59.1275 47.6763L49.9395 34.9643L48.6115 33.2043L37.8815 47.7183C36.6555 49.4643 35.3695 50.2243 33.0815 49.6063L46.8215 31.1623L34.0295 14.5023C36.2295 14.0743 37.7495 14.2923 39.0995 16.2623L48.6295 29.1323L58.2295 16.3323C59.4595 14.5863 60.7815 13.9223 62.9895 14.5663L58.0295 21.1423L51.3095 29.8923C50.5095 30.8923 50.6195 31.5763 51.3555 32.5423L64.1875 49.5903ZM0.2035 30.8543L1.3275 25.3263C4.3875 14.3863 16.9275 9.84026 25.5755 16.6003C30.6295 20.5763 31.8855 26.2003 31.6355 32.5003H3.1475C2.7195 43.8403 10.8815 50.6843 21.2875 47.1923C24.9375 45.9663 27.0875 43.1083 28.1635 39.5323C28.7095 37.7403 29.6135 37.4603 31.2975 37.9723C30.4375 42.4443 28.4975 46.1803 24.3975 48.5183C18.2715 52.0183 9.5275 50.8863 4.9275 46.0223C2.1875 43.2003 1.0555 39.6243 0.5475 35.8003C0.4675 35.1683 0.3075 34.5663 0.1875 33.9603C0.198167 32.9256 0.2035 31.8909 0.2035 30.8563V30.8543ZM3.1995 30.0943H28.9435C28.7755 21.8943 23.6695 16.0703 16.6915 16.0203C9.0315 15.9603 3.5315 21.6463 3.1995 30.0943Z" fill="#F9FAFB"/>
</g>
<defs>
<clipPath id="clip0_420_3207">
<rect width="64" height="64" fill="white" transform="translate(0.1875)"/>
</clipPath>
</defs>
</svg>
