<svg width="65" height="64" viewBox="0 0 65 64" fill="none" xmlns="http://www.w3.org/2000/svg">
<g clip-path="url(#clip0_420_3192)">
<mask id="mask0_420_3192" style="mask-type:alpha" maskUnits="userSpaceOnUse" x="0" y="0" width="65" height="64">
<path d="M32.4395 64C50.1126 64 64.4395 49.6731 64.4395 32C64.4395 14.3269 50.1126 0 32.4395 0C14.7663 0 0.439453 14.3269 0.439453 32C0.439453 49.6731 14.7663 64 32.4395 64Z" fill="black"/>
</mask>
<g mask="url(#mask0_420_3192)">
<path d="M32.4392 62.9331C49.5232 62.9331 63.3725 49.0837 63.3725 31.9997C63.3725 14.9157 49.5232 1.06641 32.4392 1.06641C15.3552 1.06641 1.50586 14.9157 1.50586 31.9997C1.50586 49.0837 15.3552 62.9331 32.4392 62.9331Z" fill="black" stroke="white" stroke-width="6"/>
<path d="M53.598 56.0073L25.0235 19.2002H19.6396V44.7895H23.9467V24.6699L50.2171 58.6118C51.4025 57.8185 52.5317 56.9478 53.598 56.0073Z" fill="url(#paint0_linear_420_3192)"/>
<path d="M45.5948 19.2002H41.3281V44.8002H45.5948V19.2002Z" fill="url(#paint1_linear_420_3192)"/>
</g>
</g>
<defs>
<linearGradient id="paint0_linear_420_3192" x1="39.1952" y1="41.4224" x2="51.8174" y2="57.0669" gradientUnits="userSpaceOnUse">
<stop stop-color="white"/>
<stop offset="1" stop-color="white" stop-opacity="0"/>
</linearGradient>
<linearGradient id="paint1_linear_420_3192" x1="43.4615" y1="19.2002" x2="43.39" y2="38.0002" gradientUnits="userSpaceOnUse">
<stop stop-color="white"/>
<stop offset="1" stop-color="white" stop-opacity="0"/>
</linearGradient>
<clipPath id="clip0_420_3192">
<rect width="64" height="64" fill="white" transform="translate(0.439453)"/>
</clipPath>
</defs>
</svg>
