<svg width="44" height="64" viewBox="0 0 44 64" fill="none" xmlns="http://www.w3.org/2000/svg">
<g clip-path="url(#clip0_420_3239)">
<path d="M22.0264 31.9997C22.0264 29.1707 23.1502 26.4576 25.1506 24.4572C27.1509 22.4568 29.8641 21.333 32.693 21.333C35.522 21.333 38.2351 22.4568 40.2355 24.4572C42.2359 26.4576 43.3597 29.1707 43.3597 31.9997C43.3597 34.8287 42.2359 37.5418 40.2355 39.5421C38.2351 41.5425 35.522 42.6663 32.693 42.6663C29.8641 42.6663 27.1509 41.5425 25.1506 39.5421C23.1502 37.5418 22.0264 34.8287 22.0264 31.9997Z" fill="#1ABCFE"/>
<path d="M0.693359 53.3337C0.693359 50.5047 1.81717 47.7916 3.81755 45.7912C5.81794 43.7908 8.53105 42.667 11.36 42.667H22.0267V53.3337C22.0267 56.1626 20.9029 58.8757 18.9025 60.8761C16.9021 62.8765 14.189 64.0003 11.36 64.0003C8.53105 64.0003 5.81794 62.8765 3.81755 60.8761C1.81717 58.8757 0.693359 56.1626 0.693359 53.3337Z" fill="#0ACF83"/>
<path d="M22.0264 0V21.3333H32.693C35.522 21.3333 38.2351 20.2095 40.2355 18.2091C42.2359 16.2087 43.3597 13.4956 43.3597 10.6667C43.3597 7.83769 42.2359 5.12458 40.2355 3.12419C38.2351 1.12381 35.522 0 32.693 0L22.0264 0Z" fill="#FF7262"/>
<path d="M0.693359 10.6667C0.693359 13.4956 1.81717 16.2087 3.81755 18.2091C5.81794 20.2095 8.53105 21.3333 11.36 21.3333H22.0267V0H11.36C8.53105 0 5.81794 1.12381 3.81755 3.12419C1.81717 5.12458 0.693359 7.83769 0.693359 10.6667Z" fill="#F24E1E"/>
<path d="M0.693359 31.9997C0.693359 34.8287 1.81717 37.5418 3.81755 39.5421C5.81794 41.5425 8.53105 42.6663 11.36 42.6663H22.0267V21.333H11.36C8.53105 21.333 5.81794 22.4568 3.81755 24.4572C1.81717 26.4576 0.693359 29.1707 0.693359 31.9997Z" fill="#A259FF"/>
</g>
<defs>
<clipPath id="clip0_420_3239">
<rect width="42.6667" height="64" fill="white" transform="translate(0.693359)"/>
</clipPath>
</defs>
</svg>
